<?xml version="1.0" encoding="utf-8"?>
<!-- Generator: Adobe Illustrator 24.0.1, SVG Export Plug-In . SVG Version: 6.00 Build 0)  -->
<svg version="1.1" id="Calque_1" xmlns="http://www.w3.org/2000/svg" xmlns:xlink="http://www.w3.org/1999/xlink" x="0px" y="0px"
	 width="120px" height="120px" viewBox="0 0 120 120" style="enable-background:new 0 0 120 120;" xml:space="preserve">
<g>
	
		<circle style="fill:none;stroke:#FFE2BD;stroke-width:2;stroke-miterlimit:10;stroke-dasharray:5.0252,5.0252;" cx="60" cy="60" r="56"/>
</g>
<g>
	<g>
		<path style="fill:#FFE2BD;" d="M81.6,41.6H38.4c-2.5,0-4.6,2.1-4.6,4.6v27.6c0,2.5,2.1,4.6,4.6,4.6h43.2c2.5,0,4.6-2.1,4.6-4.6
			V46.2C86.2,43.6,84.2,41.6,81.6,41.6z M81,44.6C80,45.6,63.8,61.7,63.3,62.2c-0.9,0.9-2,1.3-3.3,1.3s-2.4-0.5-3.3-1.4
			C56.4,61.9,40.3,45.9,39,44.6H81z M36.9,73.2V46.8L50.1,60L36.9,73.2z M39,75.4l13.3-13.2l2.3,2.2c1.5,1.5,3.4,2.2,5.4,2.2
			s4-0.8,5.4-2.2l2.3-2.2L81,75.4H39z M83.1,73.2L69.9,60l13.3-13.2V73.2z"/>
	</g>
</g>
</svg>
