<?xml version="1.0" encoding="utf-8"?>
<!-- Generator: Adobe Illustrator 24.0.1, SVG Export Plug-In . SVG Version: 6.00 Build 0)  -->
<svg version="1.1" id="Calque_1" xmlns="http://www.w3.org/2000/svg" xmlns:xlink="http://www.w3.org/1999/xlink" x="0px" y="0px"
	 width="120px" height="120px" viewBox="0 0 120 120" style="enable-background:new 0 0 120 120;" xml:space="preserve">
<path style="fill:#FFE2BD;" d="M72.1,69.3c-2.3,0-4.4,1-5.9,2.7l-16.9-9.6c0.2-0.8,0.4-1.6,0.4-2.4c0-0.8-0.1-1.7-0.4-2.4l16.9-9.6
	c1.4,1.6,3.5,2.7,5.9,2.7c4.3,0,7.8-3.5,7.8-7.8S76.4,35,72.1,35c-4.3,0-7.8,3.5-7.8,7.8c0,0.8,0.1,1.7,0.4,2.4l-16.9,9.6
	c-1.4-1.6-3.5-2.7-5.9-2.7c-4.3,0-7.8,3.5-7.8,7.8s3.5,7.8,7.8,7.8c2.3,0,4.4-1,5.9-2.7l16.9,9.6c-0.2,0.8-0.4,1.6-0.4,2.4
	c0,4.3,3.5,7.8,7.8,7.8c4.3,0,7.8-3.5,7.8-7.8S76.4,69.3,72.1,69.3z M72.1,38.1c2.6,0,4.7,2.1,4.7,4.7s-2.1,4.7-4.7,4.7
	s-4.7-2.1-4.7-4.7S69.5,38.1,72.1,38.1z M41.9,64.6c-2.6,0-4.7-2.1-4.7-4.7s2.1-4.7,4.7-4.7c2.6,0,4.7,2.1,4.7,4.7
	S44.5,64.6,41.9,64.6z M72.1,81.8c-2.6,0-4.7-2.1-4.7-4.7s2.1-4.7,4.7-4.7s4.7,2.1,4.7,4.7S74.6,81.8,72.1,81.8z"/>
<g>
	
		<circle style="fill:none;stroke:#FFE2BD;stroke-width:2;stroke-miterlimit:10;stroke-dasharray:5.0252,5.0252;" cx="60" cy="60" r="56"/>
</g>
</svg>
