<?xml version="1.0" encoding="utf-8"?>
<!-- Generator: Adobe Illustrator 24.0.1, SVG Export Plug-In . SVG Version: 6.00 Build 0)  -->
<svg version="1.1" id="Calque_1" xmlns="http://www.w3.org/2000/svg" xmlns:xlink="http://www.w3.org/1999/xlink" x="0px" y="0px"
	 width="120px" height="120px" viewBox="0 0 120 120" style="enable-background:new 0 0 120 120;" xml:space="preserve">
<g>
	
		<circle style="fill:none;stroke:#FFE2BD;stroke-width:2;stroke-miterlimit:10;stroke-dasharray:5.0252,5.0252;" cx="60" cy="60" r="56"/>
</g>
<g>
	<g>
		<path style="fill:#FFE2BD;" d="M85.2,46.9c-1.9,0.8-3.9,1.4-6,1.6c2.1-1.3,3.8-3.3,4.5-5.7c-2,1.2-4.2,2-6.5,2.5
			c-1.9-2-4.6-3.3-7.5-3.3c-5.7,0-10.3,4.6-10.3,10.3c0,0.8,0.1,1.6,0.2,2.4C51,54.4,43.4,50.2,38.3,44c-0.9,1.5-1.4,3.3-1.4,5.2
			c0,3.6,1.8,6.7,4.6,8.6c-1.7,0-3.3-0.5-4.7-1.3c0,0,0,0.1,0,0.1c0,5,3.6,9.2,8.3,10.1c-0.8,0.2-1.8,0.3-2.7,0.3
			c-0.7,0-1.3,0-2-0.2c1.3,4.1,5.1,7.1,9.7,7.2c-3.5,2.7-8,4.4-12.8,4.4c-0.8,0-1.7,0-2.5-0.1c4.6,3,10,4.6,15.8,4.6
			c19,0,29.4-15.7,29.4-29.4c0-0.5,0-0.9,0-1.3C82.1,50.8,83.8,49,85.2,46.9z"/>
	</g>
</g>
</svg>
